<svg xmlns="http://www.w3.org/2000/svg" viewBox="0 0 100 140">
  <!-- Card background -->
  <rect width="100" height="140" rx="5" fill="#1e293b" />
  
  <!-- Card border -->
  <rect x="3" y="3" width="94" height="134" rx="3" fill="#334155" stroke="#64748b" stroke-width="1" />
  
  <!-- Card back pattern -->
  <g fill="#64748b" opacity="0.2">
    <circle cx="50" cy="70" r="25" />
    <circle cx="50" cy="70" r="35" fill="none" stroke="#64748b" stroke-width="2" />
    <circle cx="50" cy="70" r="15" fill="none" stroke="#64748b" stroke-width="2" />
    
    <!-- Decorative shapes -->
    <path d="M50 20 L60 40 L50 60 L40 40 Z" />
    <path d="M50 80 L60 100 L50 120 L40 100 Z" />
    <path d="M20 70 L30 60 L40 70 L30 80 Z" />
    <path d="M80 70 L70 60 L60 70 L70 80 Z" />
  </g>
  
  <!-- Card swirl -->
  <path d="M30 30 Q50 10 70 30 Q90 50 70 70 Q50 90 30 70 Q10 50 30 30" fill="none" stroke="#94a3b8" stroke-width="2" opacity="0.5" />
</svg>
